<svg id="svg" version="1.1" xmlns="http://www.w3.org/2000/svg" xmlns:xlink="http://www.w3.org/1999/xlink" width="400" height="112.8259712613092" viewBox="0, 0, 400,112.8259712613092"><g id="svgg"><path id="path0" d="M53.500 0.100 C 14.108 2.233,-10.994 42.825,4.752 78.928 C 17.591 108.367,52.778 121.047,81.506 106.587 C 115.353 89.550,122.903 44.205,96.418 17.025 C 85.214 5.527,69.285 -0.754,53.500 0.100 M33.059 19.685 C 38.212 22.676,39.937 23.672,49.500 29.169 C 54.496 32.042,61.696 36.206,65.500 38.423 C 69.304 40.640,73.542 43.094,74.917 43.877 C 76.292 44.660,78.092 45.693,78.917 46.173 C 79.742 46.653,80.642 47.175,80.917 47.332 C 82.314 48.132,93.257 54.466,94.371 55.120 C 95.881 56.007,95.900 55.900,94.044 56.961 C 93.241 57.420,91.121 58.639,89.333 59.670 C 87.546 60.702,85.858 61.674,85.583 61.830 C 85.308 61.987,83.208 63.203,80.917 64.532 C 78.625 65.862,74.987 67.962,72.833 69.200 C 67.999 71.977,64.766 73.853,60.000 76.643 C 58.946 77.260,55.271 79.384,51.833 81.363 C 48.396 83.342,43.933 85.915,41.917 87.080 C 39.900 88.245,37.875 89.409,37.417 89.667 C 36.958 89.924,34.679 91.231,32.351 92.571 C 30.023 93.911,28.100 94.987,28.079 94.962 C 28.037 94.914,29.000 91.276,33.344 75.083 C 34.279 71.600,35.292 67.813,35.596 66.667 C 35.900 65.521,36.269 64.133,36.416 63.583 C 36.562 63.033,36.862 61.908,37.081 61.083 C 37.301 60.258,38.318 56.471,39.342 52.667 C 40.367 48.862,41.327 45.262,41.477 44.667 C 41.737 43.634,41.752 44.234,41.793 57.458 C 41.816 65.090,41.873 71.333,41.919 71.333 C 41.965 71.333,44.383 69.959,47.293 68.279 C 50.203 66.598,52.921 65.033,53.333 64.800 C 56.057 63.263,67.456 56.585,67.631 56.423 C 67.880 56.194,69.586 57.939,46.088 34.375 C 37.015 25.277,29.654 17.833,29.730 17.833 C 29.806 17.833,31.304 18.667,33.059 19.685 M135.333 40.750 L 135.333 45.500 151.458 45.501 C 169.951 45.502,169.339 45.444,170.106 47.279 C 170.440 48.077,170.440 64.590,170.106 65.388 C 169.362 67.170,169.402 67.165,156.125 67.166 L 144.667 67.167 144.667 59.083 L 144.667 51.000 140.000 51.000 L 135.333 51.000 135.333 63.833 L 135.333 76.667 151.593 76.667 C 162.712 76.667,168.232 76.608,169.051 76.481 C 173.715 75.759,177.628 72.514,179.228 68.044 L 179.750 66.583 179.750 56.333 L 179.750 46.083 179.296 44.750 C 177.991 40.917,174.844 37.862,170.917 36.615 C 169.063 36.027,168.236 36.000,151.719 36.000 L 135.333 36.000 135.333 40.750 M188.540 51.292 L 188.593 66.583 188.973 67.824 C 190.431 72.591,193.734 75.764,198.000 76.496 C 198.757 76.626,203.596 76.667,214.083 76.632 L 229.083 76.583 230.417 76.127 C 233.693 75.004,236.040 72.732,237.469 69.298 C 238.488 66.852,238.500 66.627,238.500 50.562 L 238.500 36.000 233.750 36.000 L 229.000 36.000 228.999 50.542 C 228.998 66.072,229.001 66.023,228.149 66.739 L 227.641 67.167 213.524 67.167 C 197.945 67.167,198.989 67.239,198.374 66.115 C 198.105 65.622,198.080 64.494,198.037 50.792 L 197.991 36.000 193.239 36.000 L 188.487 36.000 188.540 51.292 M247.333 56.333 L 247.333 76.667 252.000 76.667 L 256.667 76.667 256.667 63.000 C 256.667 55.483,256.723 49.338,256.792 49.344 C 256.918 49.356,259.966 52.758,261.978 55.133 C 262.576 55.839,263.108 56.454,263.161 56.500 C 263.214 56.546,264.080 57.521,265.086 58.667 C 266.091 59.813,267.335 61.200,267.850 61.750 C 268.365 62.300,269.182 63.200,269.667 63.750 C 271.715 66.074,274.225 68.893,274.340 69.000 C 274.390 69.046,275.952 70.791,277.811 72.878 L 281.192 76.672 285.888 76.628 L 290.583 76.583 290.626 56.287 L 290.668 35.992 285.918 36.005 L 281.169 36.019 281.126 49.628 L 281.083 63.237 279.147 61.077 C 278.082 59.889,276.028 57.604,274.584 56.000 C 273.140 54.396,271.386 52.448,270.687 51.672 C 269.989 50.895,268.667 49.428,267.750 48.412 C 266.833 47.396,265.558 45.970,264.917 45.244 C 264.275 44.518,263.337 43.461,262.833 42.896 C 262.329 42.331,260.754 40.550,259.333 38.939 L 256.750 36.009 252.042 36.005 L 247.333 36.000 247.333 56.333 M299.333 40.750 L 299.333 45.500 320.899 45.500 C 340.410 45.500,342.474 45.475,342.566 45.236 C 342.621 45.091,342.667 42.954,342.667 40.486 L 342.667 36.000 321.000 36.000 L 299.333 36.000 299.333 40.750 M360.351 36.267 C 349.747 38.586,348.182 55.075,358.101 59.979 C 360.050 60.942,359.307 60.897,374.789 60.994 L 389.160 61.083 389.674 61.597 C 390.690 62.613,390.734 65.488,389.751 66.631 L 389.362 67.083 371.348 67.127 L 353.333 67.171 353.333 71.923 L 353.333 76.675 372.042 76.629 L 390.750 76.583 392.083 76.129 C 401.664 72.862,402.778 57.628,393.782 52.901 C 391.195 51.542,392.001 51.606,376.150 51.506 C 360.828 51.409,361.753 51.473,361.239 50.479 C 360.897 49.817,360.918 47.307,361.272 46.561 C 361.813 45.420,360.401 45.500,380.120 45.500 L 398.000 45.500 398.000 40.750 L 398.000 36.000 379.708 36.017 C 364.706 36.030,361.225 36.075,360.351 36.267 M316.583 51.667 L 299.417 51.750 299.382 56.375 L 299.348 61.000 319.926 61.000 L 340.505 61.000 340.461 56.292 L 340.417 51.583 337.083 51.583 C 335.250 51.583,326.025 51.621,316.583 51.667 M299.333 71.917 L 299.333 76.668 320.958 76.626 L 342.583 76.583 342.628 71.875 L 342.672 67.167 321.003 67.167 L 299.333 67.167 299.333 71.917 " stroke="none" fill="#0986c1" fill-rule="evenodd"></path><path id="path1" d="M0.022 26.042 C 0.034 40.818,0.103 51.543,0.181 50.833 C 1.837 35.834,8.969 22.325,20.077 13.151 C 20.899 12.472,21.694 11.797,21.843 11.651 C 22.298 11.206,26.158 8.603,27.667 7.723 C 34.757 3.588,42.256 1.137,50.500 0.261 C 52.313 0.068,49.166 0.037,26.292 0.020 L 0.000 0.000 0.022 26.042 M61.917 0.251 C 77.251 1.864,91.089 9.498,100.631 21.609 C 101.292 22.448,101.833 23.173,101.833 23.220 C 101.833 23.268,102.214 23.856,102.680 24.528 C 115.575 43.133,115.733 68.567,103.069 87.521 C 102.390 88.538,101.833 89.405,101.833 89.446 C 101.833 89.676,98.462 93.694,96.905 95.318 C 87.500 105.133,75.165 111.073,61.250 112.487 C 60.517 112.561,136.435 112.632,229.958 112.644 L 400.000 112.667 399.981 89.458 C 399.970 76.694,399.928 66.400,399.887 66.583 C 398.963 70.699,397.176 73.422,394.218 75.219 C 391.509 76.864,391.590 76.859,370.833 76.800 L 353.417 76.750 353.372 71.958 C 353.348 69.323,353.386 67.166,353.456 67.166 C 353.526 67.165,361.582 67.147,371.358 67.124 C 388.866 67.084,389.137 67.078,389.506 66.750 C 390.575 65.796,390.650 62.474,389.624 61.544 C 389.320 61.269,388.358 61.244,374.941 61.161 L 360.583 61.072 359.274 60.599 C 349.871 57.196,348.493 43.230,357.000 37.545 C 359.558 35.836,359.859 35.814,380.500 35.870 L 398.083 35.917 398.128 40.655 C 398.162 44.335,398.125 45.424,397.961 45.528 C 397.845 45.601,389.719 45.663,379.904 45.664 L 362.058 45.667 361.719 46.042 C 360.652 47.221,360.817 50.711,361.966 51.277 C 362.122 51.354,368.662 51.454,376.500 51.500 L 390.750 51.583 392.082 52.054 C 396.118 53.480,398.537 56.381,399.819 61.333 C 399.911 61.688,399.976 49.806,399.985 30.958 L 400.000 0.000 229.958 0.020 C 91.972 0.036,60.294 0.080,61.917 0.251 M30.167 18.209 C 30.212 18.263,38.744 26.819,49.125 37.223 C 59.506 47.626,68.000 56.206,68.000 56.291 C 68.000 56.417,64.690 58.414,64.089 58.651 C 63.994 58.689,63.167 59.183,62.250 59.750 C 61.333 60.317,58.708 61.855,56.417 63.166 C 54.125 64.478,51.837 65.796,51.333 66.096 C 49.480 67.197,41.973 71.500,41.904 71.500 C 41.865 71.500,41.833 65.375,41.833 57.889 C 41.833 50.403,41.796 44.315,41.751 44.360 C 41.669 44.442,40.751 47.771,39.507 52.500 C 39.157 53.829,38.626 55.817,38.327 56.917 C 38.028 58.017,37.615 59.554,37.410 60.333 C 37.011 61.845,35.163 68.720,34.228 72.167 C 33.918 73.313,33.394 75.262,33.065 76.500 C 31.351 82.942,28.607 93.141,28.206 94.561 C 28.127 94.840,28.158 94.850,28.517 94.662 C 29.224 94.292,35.562 90.636,36.205 90.228 C 36.547 90.011,36.859 89.833,36.899 89.833 C 36.940 89.833,37.522 89.508,38.195 89.111 C 38.867 88.714,39.754 88.198,40.167 87.965 C 40.579 87.731,41.854 86.997,43.000 86.333 C 45.297 85.001,52.057 81.105,58.750 77.255 C 60.308 76.359,61.771 75.496,62.000 75.339 C 62.229 75.181,63.467 74.450,64.750 73.716 C 66.900 72.485,69.414 71.039,74.833 67.919 C 75.979 67.259,77.854 66.175,79.000 65.510 C 81.088 64.297,90.645 58.790,91.692 58.196 C 93.688 57.063,95.269 56.129,95.385 56.013 C 95.460 55.940,94.410 55.242,93.052 54.464 C 91.694 53.686,89.383 52.354,87.917 51.504 C 86.450 50.655,83.225 48.796,80.750 47.372 C 78.275 45.949,75.800 44.524,75.250 44.205 C 74.700 43.887,73.987 43.476,73.667 43.293 C 72.224 42.471,66.191 38.976,64.000 37.694 C 60.976 35.923,57.765 34.056,57.000 33.623 C 56.679 33.442,55.217 32.598,53.750 31.749 C 48.696 28.822,46.915 27.792,46.333 27.463 C 46.012 27.281,45.337 26.887,44.833 26.587 C 44.329 26.288,43.579 25.854,43.167 25.624 C 42.329 25.158,34.141 20.447,32.583 19.536 C 30.999 18.609,30.076 18.102,30.167 18.209 M168.750 36.063 C 174.698 36.962,179.185 41.398,179.842 47.028 C 180.153 49.699,179.965 65.815,179.606 67.164 C 178.512 71.283,175.236 74.731,171.167 76.048 C 168.811 76.810,167.395 76.862,150.750 76.804 L 135.250 76.750 135.207 63.875 L 135.165 51.000 139.999 51.000 L 144.833 51.000 144.833 59.091 L 144.833 67.182 156.380 67.132 L 167.926 67.083 168.739 66.665 C 170.291 65.866,170.243 66.177,170.299 56.667 C 170.352 47.720,170.325 47.396,169.472 46.523 C 168.611 45.642,168.995 45.661,151.569 45.621 L 135.250 45.583 135.206 40.919 C 135.181 38.353,135.198 36.160,135.242 36.044 C 135.365 35.724,166.628 35.742,168.750 36.063 M198.167 50.841 C 198.244 64.690,198.271 65.797,198.542 66.210 C 199.138 67.119,198.514 67.083,213.622 67.083 L 227.660 67.083 228.182 66.562 C 228.924 65.820,228.960 64.943,228.887 49.583 C 228.852 42.433,228.866 36.413,228.916 36.206 L 229.008 35.828 233.795 35.872 L 238.583 35.917 238.632 49.667 C 238.699 68.684,238.541 69.708,234.959 73.379 C 231.622 76.799,231.937 76.750,213.417 76.750 L 198.417 76.750 197.000 76.366 C 192.943 75.265,189.692 71.646,188.754 67.184 C 188.525 66.095,188.447 56.777,188.498 36.539 L 188.500 35.828 193.292 35.872 L 198.083 35.917 198.167 50.841 M259.509 38.938 C 265.512 45.738,266.714 47.090,266.895 47.250 C 266.999 47.342,267.682 48.092,268.414 48.917 C 269.146 49.742,270.496 51.244,271.414 52.254 C 272.332 53.265,274.846 56.059,277.000 58.463 L 280.917 62.835 281.000 49.376 L 281.083 35.917 285.874 35.872 L 290.664 35.828 290.707 56.246 C 290.743 73.124,290.712 76.678,290.528 76.748 C 290.406 76.795,288.254 76.833,285.746 76.833 L 281.186 76.833 278.885 74.286 C 277.619 72.885,276.058 71.144,275.417 70.417 C 274.775 69.690,273.536 68.305,272.664 67.339 C 270.253 64.671,264.600 58.327,262.946 56.433 C 260.970 54.171,258.584 51.467,257.667 50.450 L 256.917 49.619 256.833 63.185 L 256.750 76.750 252.000 76.750 L 247.250 76.750 247.208 56.292 L 247.165 35.833 251.966 35.833 L 256.767 35.833 259.509 38.938 M342.628 40.704 L 342.583 45.574 320.958 45.579 L 299.334 45.583 299.333 40.708 L 299.333 35.833 321.003 35.833 L 342.672 35.833 342.628 40.704 M340.667 56.333 L 340.667 61.167 320.000 61.167 L 299.333 61.167 299.333 56.333 L 299.333 51.500 320.000 51.500 L 340.667 51.500 340.667 56.333 M0.019 86.625 L 0.000 112.667 26.292 112.645 C 41.388 112.632,51.980 112.564,51.167 112.484 C 36.676 111.071,22.846 104.024,13.908 93.500 C 7.189 85.589,2.556 76.162,0.987 67.208 C 0.902 66.727,0.754 65.902,0.656 65.375 C 0.559 64.848,0.380 63.554,0.259 62.500 C 0.067 60.841,0.035 64.087,0.019 86.625 M342.628 71.958 L 342.583 76.750 321.083 76.793 C 309.258 76.816,299.508 76.807,299.417 76.773 C 299.309 76.732,299.267 75.009,299.297 71.938 L 299.343 67.167 321.008 67.167 L 342.672 67.167 342.628 71.958 " stroke="none" fill="#fbfbfb" fill-rule="evenodd"></path><path id="path2" d="M52.958 0.121 C 53.256 0.158,53.744 0.158,54.042 0.121 C 54.340 0.084,54.096 0.053,53.500 0.053 C 52.904 0.053,52.660 0.084,52.958 0.121 M58.458 0.121 C 58.756 0.158,59.244 0.158,59.542 0.121 C 59.840 0.084,59.596 0.053,59.000 0.053 C 58.404 0.053,58.160 0.084,58.458 0.121 M62.708 0.448 C 62.869 0.490,63.131 0.490,63.292 0.448 C 63.452 0.406,63.321 0.372,63.000 0.372 C 62.679 0.372,62.548 0.406,62.708 0.448 M81.333 5.908 C 81.333 5.954,81.558 6.108,81.833 6.250 C 82.108 6.392,82.333 6.471,82.333 6.425 C 82.333 6.379,82.108 6.226,81.833 6.083 C 81.558 5.941,81.333 5.862,81.333 5.908 M89.500 10.886 C 89.500 10.927,89.775 11.170,90.112 11.427 C 90.448 11.684,90.671 11.809,90.607 11.705 C 90.475 11.491,89.500 10.770,89.500 10.886 M19.073 14.042 L 18.583 14.583 19.125 14.094 C 19.423 13.825,19.667 13.581,19.667 13.552 C 19.667 13.423,19.529 13.537,19.073 14.042 M95.998 16.542 C 98.086 18.670,98.333 18.909,98.333 18.789 C 98.333 18.765,97.302 17.734,96.042 16.498 L 93.750 14.250 95.998 16.542 M16.247 16.708 L 14.417 18.583 16.292 16.753 C 17.323 15.746,18.167 14.902,18.167 14.878 C 18.167 14.758,17.947 14.967,16.247 16.708 M29.681 17.903 C 41.136 29.421,65.000 53.279,65.000 53.213 C 65.000 53.161,57.219 45.326,47.708 35.801 C 38.198 26.276,30.417 18.409,30.417 18.319 C 30.417 18.141,30.010 17.840,29.764 17.836 C 29.680 17.834,29.642 17.865,29.681 17.903 M13.740 19.375 L 13.250 19.917 13.792 19.427 C 14.090 19.158,14.333 18.914,14.333 18.885 C 14.333 18.757,14.196 18.870,13.740 19.375 M31.833 19.075 C 31.833 19.121,32.058 19.274,32.333 19.417 C 32.608 19.559,32.833 19.638,32.833 19.592 C 32.833 19.546,32.608 19.392,32.333 19.250 C 32.058 19.108,31.833 19.029,31.833 19.075 M36.167 21.575 C 36.167 21.621,36.392 21.774,36.667 21.917 C 36.942 22.059,37.167 22.138,37.167 22.092 C 37.167 22.046,36.942 21.892,36.667 21.750 C 36.392 21.608,36.167 21.529,36.167 21.575 M49.167 29.075 C 49.167 29.121,49.392 29.274,49.667 29.417 C 49.942 29.559,50.167 29.638,50.167 29.592 C 50.167 29.546,49.942 29.392,49.667 29.250 C 49.392 29.108,49.167 29.029,49.167 29.075 M105.583 29.500 C 105.726 29.775,105.879 30.000,105.925 30.000 C 105.971 30.000,105.892 29.775,105.750 29.500 C 105.608 29.225,105.454 29.000,105.408 29.000 C 105.362 29.000,105.441 29.225,105.583 29.500 M51.500 30.408 C 51.500 30.454,51.725 30.608,52.000 30.750 C 52.275 30.892,52.500 30.971,52.500 30.925 C 52.500 30.879,52.275 30.726,52.000 30.583 C 51.725 30.441,51.500 30.362,51.500 30.408 M54.667 32.241 C 54.667 32.287,54.892 32.441,55.167 32.583 C 55.442 32.726,55.667 32.804,55.667 32.759 C 55.667 32.713,55.442 32.559,55.167 32.417 C 54.892 32.274,54.667 32.196,54.667 32.241 M55.833 32.890 C 55.833 33.002,57.031 33.691,57.102 33.620 C 57.136 33.586,56.864 33.391,56.498 33.186 C 56.132 32.980,55.833 32.847,55.833 32.890 M57.833 34.077 C 57.833 34.122,58.133 34.313,58.500 34.500 C 58.867 34.687,59.167 34.803,59.167 34.757 C 59.167 34.711,58.867 34.520,58.500 34.333 C 58.133 34.146,57.833 34.031,57.833 34.077 M135.242 36.044 C 135.198 36.160,135.181 38.353,135.206 40.919 L 135.250 45.583 151.042 45.585 L 166.833 45.586 151.083 45.542 L 135.333 45.498 135.333 40.750 L 135.333 36.002 151.542 35.958 L 167.750 35.915 151.536 35.874 C 138.597 35.842,135.307 35.876,135.242 36.044 M193.249 35.957 L 197.998 36.005 198.042 50.503 L 198.086 65.000 198.085 50.458 L 198.083 35.917 193.292 35.913 L 188.500 35.909 193.249 35.957 M233.749 35.957 L 238.498 36.005 238.542 50.211 L 238.586 64.417 238.585 50.167 L 238.583 35.917 233.792 35.913 L 229.000 35.909 233.749 35.957 M247.208 56.292 L 247.250 76.750 252.000 76.750 L 256.750 76.750 256.833 63.181 L 256.917 49.612 258.083 50.925 C 258.725 51.647,259.662 52.695,260.167 53.255 C 260.671 53.815,261.885 55.205,262.864 56.345 C 263.843 57.484,264.927 58.679,265.272 59.000 C 265.617 59.321,265.303 58.908,264.574 58.083 C 263.846 57.258,263.208 56.546,263.158 56.500 C 263.107 56.454,262.576 55.839,261.978 55.133 C 259.966 52.758,256.918 49.356,256.792 49.344 C 256.723 49.338,256.667 55.483,256.667 63.000 L 256.667 76.667 252.000 76.667 L 247.333 76.667 247.333 56.333 L 247.333 36.000 252.042 36.005 L 256.750 36.009 259.333 38.944 C 260.754 40.559,262.322 42.300,262.818 42.815 C 263.932 43.970,263.650 43.641,259.509 38.943 L 256.767 35.833 251.966 35.833 L 247.165 35.833 247.208 56.292 M281.078 36.042 C 281.035 36.156,280.981 42.232,280.958 49.542 L 280.917 62.835 277.000 58.463 C 274.846 56.059,272.332 53.265,271.414 52.254 C 270.496 51.244,269.146 49.748,268.414 48.931 C 267.011 47.365,264.947 45.210,265.679 46.076 C 265.915 46.355,266.852 47.410,267.762 48.420 C 268.672 49.430,269.989 50.892,270.687 51.670 C 271.386 52.447,273.140 54.396,274.584 56.000 C 276.028 57.604,278.082 59.889,279.147 61.077 L 281.083 63.237 281.126 49.628 L 281.169 36.019 285.866 36.005 C 288.450 35.997,290.600 35.956,290.643 35.912 C 290.687 35.869,288.570 35.833,285.939 35.833 C 282.266 35.833,281.138 35.882,281.078 36.042 M310.125 35.958 C 316.106 35.983,325.894 35.983,331.875 35.958 C 337.856 35.934,332.962 35.914,321.000 35.914 C 309.037 35.914,304.144 35.934,310.125 35.958 M380.081 35.958 L 397.995 36.001 398.043 40.709 L 398.091 45.417 398.087 40.667 L 398.083 35.917 380.125 35.916 L 362.167 35.914 380.081 35.958 M61.333 36.058 C 61.333 36.154,64.361 37.969,66.250 39.005 C 68.147 40.046,66.911 39.219,64.500 37.835 C 63.171 37.071,61.915 36.338,61.708 36.204 C 61.502 36.071,61.333 36.005,61.333 36.058 M228.905 40.167 C 228.905 42.412,228.929 43.331,228.958 42.208 C 228.987 41.085,228.987 39.248,228.958 38.125 C 228.929 37.002,228.905 37.921,228.905 40.167 M355.740 38.542 L 355.250 39.083 355.792 38.594 C 356.297 38.138,356.410 38.000,356.281 38.000 C 356.252 38.000,356.009 38.244,355.740 38.542 M175.667 39.219 C 175.667 39.248,175.910 39.491,176.208 39.760 L 176.750 40.250 176.260 39.708 C 175.804 39.203,175.667 39.090,175.667 39.219 M41.528 44.444 C 41.415 44.866,41.352 45.241,41.388 45.277 C 41.424 45.313,41.550 45.001,41.667 44.583 C 41.784 44.166,41.846 43.791,41.806 43.751 C 41.766 43.710,41.641 44.023,41.528 44.444 M74.500 43.743 C 74.500 43.789,74.800 43.980,75.167 44.167 C 75.533 44.354,75.833 44.469,75.833 44.423 C 75.833 44.378,75.533 44.187,75.167 44.000 C 74.800 43.813,74.500 43.697,74.500 43.743 M264.250 44.497 C 264.617 44.909,264.935 45.277,264.958 45.317 C 264.981 45.356,265.036 45.353,265.080 45.309 C 265.124 45.265,264.805 44.896,264.372 44.490 L 263.584 43.750 264.250 44.497 M76.319 44.784 C 76.850 45.179,78.667 46.207,78.667 46.112 C 78.667 46.041,76.432 44.691,76.083 44.551 C 75.992 44.515,76.098 44.619,76.319 44.784 M342.500 45.306 C 342.500 45.430,342.123 45.511,341.458 45.532 L 340.417 45.563 341.399 45.624 C 342.312 45.680,342.882 45.493,342.614 45.225 C 342.551 45.162,342.500 45.199,342.500 45.306 M331.214 45.623 C 331.745 45.657,332.570 45.656,333.048 45.623 C 333.526 45.589,333.092 45.562,332.083 45.562 C 331.075 45.563,330.684 45.590,331.214 45.623 M371.042 45.625 C 375.969 45.649,384.031 45.649,388.958 45.625 C 393.885 45.600,389.854 45.580,380.000 45.580 C 370.146 45.580,366.115 45.600,371.042 45.625 M228.901 48.417 C 228.901 49.883,228.927 50.461,228.957 49.700 C 228.988 48.940,228.988 47.740,228.957 47.034 C 228.926 46.328,228.901 46.950,228.901 48.417 M79.250 46.454 C 79.342 46.542,79.717 46.782,80.083 46.988 C 80.450 47.194,80.600 47.237,80.417 47.085 C 80.044 46.775,78.988 46.205,79.250 46.454 M351.372 47.500 C 351.372 47.821,351.406 47.952,351.448 47.792 C 351.490 47.631,351.490 47.369,351.448 47.208 C 351.406 47.048,351.372 47.179,351.372 47.500 M81.000 47.509 C 81.434 47.804,82.167 48.178,82.167 48.104 C 82.167 48.012,81.016 47.333,80.865 47.336 C 80.802 47.337,80.862 47.415,81.000 47.509 M179.911 56.417 C 179.911 61.275,179.932 63.238,179.958 60.780 C 179.984 58.321,179.984 54.346,179.958 51.947 C 179.932 49.547,179.911 51.558,179.911 56.417 M112.039 49.833 C 112.039 50.154,112.073 50.285,112.115 50.125 C 112.157 49.965,112.157 49.702,112.115 49.542 C 112.073 49.381,112.039 49.512,112.039 49.833 M135.248 63.917 L 135.250 76.750 151.333 76.751 L 167.417 76.752 151.376 76.709 L 135.335 76.665 135.291 63.874 L 135.247 51.083 135.248 63.917 M144.744 59.083 C 144.744 63.575,144.765 65.389,144.792 63.113 C 144.818 60.838,144.818 57.163,144.791 54.947 C 144.765 52.730,144.744 54.592,144.744 59.083 M299.333 51.625 C 299.333 51.738,311.376 51.737,327.583 51.623 C 330.975 51.599,326.006 51.561,316.542 51.540 C 307.077 51.518,299.333 51.556,299.333 51.625 M336.375 51.615 C 336.535 51.657,336.798 51.657,336.958 51.615 C 337.119 51.573,336.987 51.539,336.667 51.539 C 336.346 51.539,336.215 51.573,336.375 51.615 M340.463 56.249 L 340.510 60.999 319.880 61.042 L 299.250 61.085 319.958 61.126 L 340.667 61.167 340.667 56.333 C 340.667 53.675,340.610 51.500,340.542 51.500 C 340.473 51.500,340.438 53.637,340.463 56.249 M0.050 52.833 C 0.050 53.337,0.081 53.544,0.119 53.292 C 0.158 53.040,0.158 52.627,0.119 52.375 C 0.081 52.123,0.050 52.329,0.050 52.833 M90.667 53.075 C 90.667 53.121,90.892 53.274,91.167 53.417 C 91.442 53.559,91.667 53.638,91.667 53.592 C 91.667 53.546,91.442 53.392,91.167 53.250 C 90.892 53.108,90.667 53.029,90.667 53.075 M112.403 56.250 C 112.403 58.083,112.428 58.856,112.457 57.967 C 112.487 57.078,112.488 55.578,112.458 54.634 C 112.428 53.689,112.404 54.417,112.403 56.250 M65.417 53.833 C 65.583 54.017,65.781 54.167,65.858 54.167 C 65.934 54.167,65.868 54.017,65.711 53.833 C 65.554 53.650,65.356 53.500,65.270 53.500 C 65.185 53.500,65.251 53.650,65.417 53.833 M38.847 54.431 C 38.740 54.858,38.683 55.238,38.721 55.277 C 38.759 55.315,38.879 54.997,38.986 54.569 C 39.094 54.142,39.150 53.762,39.112 53.723 C 39.074 53.685,38.955 54.003,38.847 54.431 M228.900 57.000 C 228.900 58.421,228.926 59.002,228.957 58.292 C 228.988 57.581,228.988 56.419,228.957 55.708 C 228.926 54.998,228.900 55.579,228.900 57.000 M66.667 54.975 C 66.667 55.166,67.315 55.740,67.416 55.639 C 67.461 55.594,67.311 55.395,67.082 55.197 C 66.854 54.998,66.667 54.898,66.667 54.975 M95.371 55.809 C 95.396 55.901,95.267 56.098,95.083 56.247 C 94.756 56.514,94.756 56.515,95.116 56.342 C 95.574 56.120,95.724 55.888,95.499 55.749 C 95.403 55.690,95.346 55.717,95.371 55.809 M67.646 56.032 C 67.868 56.327,67.489 56.650,66.042 57.396 C 65.744 57.550,65.500 57.716,65.500 57.766 C 65.500 57.864,67.250 56.928,67.754 56.560 C 68.062 56.335,68.062 56.324,67.752 56.040 C 67.472 55.784,67.460 55.783,67.646 56.032 M38.262 56.595 C 38.201 56.839,38.183 57.071,38.222 57.111 C 38.261 57.150,38.343 56.982,38.405 56.738 C 38.466 56.494,38.484 56.262,38.445 56.223 C 38.406 56.183,38.323 56.351,38.262 56.595 M355.167 58.083 C 355.478 58.404,355.770 58.667,355.815 58.667 C 355.861 58.667,355.644 58.404,355.333 58.083 C 355.022 57.762,354.730 57.500,354.685 57.500 C 354.639 57.500,354.856 57.762,355.167 58.083 M64.583 58.246 C 64.217 58.471,63.969 58.659,64.032 58.661 C 64.177 58.668,65.333 57.991,65.333 57.900 C 65.333 57.792,65.282 57.815,64.583 58.246 M0.050 59.833 C 0.050 60.337,0.081 60.544,0.119 60.292 C 0.158 60.040,0.158 59.627,0.119 59.375 C 0.081 59.123,0.050 59.329,0.050 59.833 M59.292 61.316 C 57.299 62.486,55.611 63.505,55.542 63.582 C 55.385 63.755,55.228 63.841,58.500 61.962 C 61.641 60.158,63.000 59.335,63.000 59.236 C 63.000 59.135,63.204 59.020,59.292 61.316 M265.833 59.719 C 265.833 59.748,266.077 59.991,266.375 60.260 L 266.917 60.750 266.427 60.208 C 265.971 59.703,265.833 59.590,265.833 59.719 M368.387 61.125 C 372.130 61.150,378.205 61.150,381.887 61.125 C 385.570 61.100,382.508 61.079,375.083 61.079 C 367.658 61.079,364.645 61.100,368.387 61.125 M36.929 61.595 C 36.867 61.839,36.849 62.071,36.889 62.111 C 36.928 62.150,37.010 61.982,37.071 61.738 C 37.133 61.494,37.151 61.262,37.111 61.223 C 37.072 61.183,36.990 61.351,36.929 61.595 M85.917 61.500 C 85.642 61.682,85.492 61.830,85.583 61.829 C 85.750 61.826,86.657 61.176,86.500 61.171 C 86.454 61.170,86.192 61.318,85.917 61.500 M269.618 63.917 C 270.998 65.475,272.594 67.237,273.165 67.833 C 273.982 68.685,273.924 68.595,272.895 67.417 C 272.174 66.592,271.547 65.879,271.500 65.833 C 271.454 65.787,270.655 64.887,269.725 63.833 C 268.795 62.779,267.826 61.729,267.572 61.500 C 267.317 61.271,268.238 62.358,269.618 63.917 M399.872 62.333 C 399.872 62.654,399.906 62.785,399.948 62.625 C 399.990 62.465,399.990 62.202,399.948 62.042 C 399.906 61.881,399.872 62.012,399.872 62.333 M112.039 62.833 C 112.039 63.154,112.073 63.285,112.115 63.125 C 112.157 62.965,112.157 62.702,112.115 62.542 C 112.073 62.381,112.039 62.512,112.039 62.833 M83.125 63.095 C 82.502 63.433,82.540 63.574,83.167 63.250 C 83.442 63.108,83.667 62.956,83.667 62.912 C 83.667 62.805,83.649 62.811,83.125 63.095 M0.372 63.500 C 0.372 63.821,0.406 63.952,0.448 63.792 C 0.490 63.631,0.490 63.369,0.448 63.208 C 0.406 63.048,0.372 63.179,0.372 63.500 M228.889 64.167 C 228.889 64.854,228.919 65.135,228.955 64.792 C 228.991 64.448,228.991 63.885,228.955 63.542 C 228.919 63.198,228.889 63.479,228.889 64.167 M390.383 64.167 C 390.383 64.671,390.415 64.877,390.453 64.625 C 390.491 64.373,390.491 63.960,390.453 63.708 C 390.415 63.456,390.383 63.663,390.383 64.167 M81.958 63.762 C 81.335 64.100,81.373 64.241,82.000 63.917 C 82.275 63.774,82.500 63.623,82.500 63.579 C 82.500 63.472,82.482 63.478,81.958 63.762 M54.792 63.929 C 54.169 64.267,54.207 64.407,54.833 64.083 C 55.108 63.941,55.333 63.789,55.333 63.746 C 55.333 63.638,55.315 63.645,54.792 63.929 M36.104 64.590 C 36.047 64.739,36.006 64.986,36.014 65.139 C 36.022 65.292,36.095 65.195,36.175 64.925 C 36.333 64.399,36.277 64.139,36.104 64.590 M52.957 64.986 C 52.291 65.413,52.168 65.586,52.750 65.277 C 53.448 64.907,53.780 64.670,53.583 64.681 C 53.492 64.687,53.210 64.824,52.957 64.986 M79.958 64.929 C 79.335 65.267,79.373 65.407,80.000 65.083 C 80.275 64.941,80.500 64.789,80.500 64.746 C 80.500 64.638,80.482 64.645,79.958 64.929 M50.957 66.149 C 49.942 66.745,49.716 66.977,50.583 66.534 C 51.227 66.205,52.004 65.674,51.833 65.680 C 51.788 65.682,51.393 65.893,50.957 66.149 M77.375 66.428 C 76.985 66.661,76.667 66.892,76.667 66.940 C 76.667 67.030,77.791 66.391,78.075 66.140 C 78.361 65.887,78.095 65.996,77.375 66.428 M198.959 66.792 C 199.213 67.034,199.540 67.160,199.884 67.148 C 200.414 67.128,200.414 67.128,199.792 67.007 C 199.449 66.941,199.033 66.780,198.867 66.651 C 198.702 66.522,198.744 66.585,198.959 66.792 M48.386 67.632 C 47.636 68.067,46.961 68.489,46.886 68.571 C 46.722 68.751,46.733 68.745,48.458 67.758 C 49.215 67.325,49.833 66.940,49.833 66.902 C 49.833 66.793,49.821 66.800,48.386 67.632 M74.458 68.095 C 73.835 68.433,73.873 68.574,74.500 68.250 C 74.775 68.108,75.000 67.956,75.000 67.912 C 75.000 67.805,74.982 67.811,74.458 68.095 M46.125 68.929 C 45.502 69.267,45.540 69.407,46.167 69.083 C 46.442 68.941,46.667 68.789,46.667 68.746 C 46.667 68.638,46.649 68.645,46.125 68.929 M237.219 69.845 C 236.930 70.480,236.729 71.000,236.772 71.000 C 236.884 71.000,237.886 68.830,237.809 68.753 C 237.774 68.718,237.508 69.209,237.219 69.845 M274.606 69.542 C 274.883 69.840,275.412 70.421,275.781 70.833 C 276.149 71.246,277.516 72.765,278.818 74.208 L 281.186 76.833 285.801 76.831 C 288.340 76.829,290.503 76.773,290.610 76.706 C 290.716 76.638,288.641 76.605,286.000 76.632 L 281.197 76.681 277.807 72.853 C 275.942 70.747,274.346 69.019,274.259 69.012 C 274.172 69.006,274.328 69.244,274.606 69.542 M44.542 69.851 C 44.060 70.131,43.667 70.399,43.667 70.446 C 43.667 70.539,45.149 69.715,45.408 69.478 C 45.691 69.220,45.434 69.330,44.542 69.851 M42.958 70.762 C 42.335 71.100,42.373 71.241,43.000 70.917 C 43.275 70.774,43.500 70.623,43.500 70.579 C 43.500 70.472,43.482 70.478,42.958 70.762 M68.457 71.562 C 67.656 72.055,67.433 72.287,68.083 71.951 C 68.606 71.680,69.311 71.177,69.167 71.177 C 69.121 71.177,68.801 71.350,68.457 71.562 M236.010 71.958 C 235.705 72.394,235.596 72.624,235.769 72.470 C 236.071 72.200,236.750 71.167,236.625 71.167 C 236.591 71.167,236.315 71.523,236.010 71.958 M175.750 73.282 C 175.153 73.839,175.019 74.011,175.417 73.708 C 176.046 73.229,176.975 72.324,176.821 72.341 C 176.782 72.345,176.300 72.769,175.750 73.282 M65.792 73.095 C 65.169 73.433,65.207 73.574,65.833 73.250 C 66.108 73.108,66.333 72.956,66.333 72.912 C 66.333 72.805,66.315 72.811,65.792 73.095 M192.250 73.667 C 192.701 74.125,193.108 74.500,193.154 74.500 C 193.200 74.500,192.868 74.125,192.417 73.667 C 191.965 73.208,191.558 72.833,191.513 72.833 C 191.467 72.833,191.799 73.208,192.250 73.667 M396.077 73.708 L 395.250 74.583 396.125 73.756 C 396.606 73.301,397.000 72.908,397.000 72.881 C 397.000 72.757,396.846 72.895,396.077 73.708 M63.625 74.345 C 63.281 74.526,63.000 74.712,63.000 74.757 C 63.000 74.803,63.300 74.687,63.667 74.500 C 64.033 74.313,64.333 74.124,64.333 74.080 C 64.333 73.971,64.332 73.971,63.625 74.345 M61.457 75.652 C 60.772 76.091,60.677 76.246,61.281 75.939 C 61.573 75.791,61.859 75.594,61.916 75.501 C 62.050 75.285,62.010 75.298,61.457 75.652 M195.167 75.750 C 195.396 75.881,195.658 75.988,195.750 75.988 C 195.842 75.988,195.729 75.881,195.500 75.750 C 195.271 75.619,195.008 75.512,194.917 75.512 C 194.825 75.512,194.938 75.619,195.167 75.750 M230.750 76.014 C 230.292 76.191,230.120 76.297,230.368 76.250 C 230.952 76.139,231.667 75.866,231.667 75.754 C 231.667 75.706,231.648 75.672,231.625 75.680 C 231.602 75.687,231.208 75.837,230.750 76.014 M299.276 76.708 C 299.318 76.777,309.057 76.833,320.917 76.833 C 332.777 76.833,342.515 76.777,342.558 76.708 C 342.600 76.640,332.862 76.583,320.917 76.583 C 308.972 76.583,299.233 76.640,299.276 76.708 M206.471 76.792 C 210.442 76.817,216.892 76.817,220.804 76.792 C 224.716 76.767,221.467 76.746,213.583 76.746 C 205.700 76.746,202.499 76.767,206.471 76.792 M362.375 76.792 C 367.302 76.816,375.365 76.816,380.292 76.792 C 385.219 76.767,381.188 76.747,371.333 76.747 C 361.479 76.747,357.448 76.767,362.375 76.792 M57.375 78.017 C 56.894 78.298,56.500 78.566,56.500 78.613 C 56.500 78.705,57.982 77.881,58.242 77.645 C 58.524 77.387,58.268 77.497,57.375 78.017 M55.792 78.929 C 55.169 79.267,55.207 79.407,55.833 79.083 C 56.108 78.941,56.333 78.789,56.333 78.746 C 56.333 78.638,56.315 78.645,55.792 78.929 M52.042 81.094 C 51.652 81.328,51.333 81.558,51.333 81.606 C 51.333 81.696,52.458 81.058,52.742 80.807 C 53.028 80.553,52.761 80.663,52.042 81.094 M43.625 85.929 C 43.002 86.267,43.040 86.407,43.667 86.083 C 43.942 85.941,44.167 85.789,44.167 85.746 C 44.167 85.638,44.149 85.645,43.625 85.929 M41.625 87.095 C 41.002 87.433,41.040 87.574,41.667 87.250 C 41.942 87.108,42.167 86.956,42.167 86.912 C 42.167 86.805,42.149 86.811,41.625 87.095 M98.740 93.208 L 98.250 93.750 98.792 93.260 C 99.090 92.991,99.333 92.748,99.333 92.719 C 99.333 92.590,99.196 92.703,98.740 93.208 M95.917 96.167 C 94.820 97.267,93.959 98.167,94.005 98.167 C 94.051 98.167,94.986 97.267,96.083 96.167 C 97.180 95.067,98.041 94.167,97.995 94.167 C 97.949 94.167,97.014 95.067,95.917 96.167 M16.417 96.167 C 17.330 97.083,18.115 97.833,18.160 97.833 C 18.206 97.833,17.497 97.083,16.583 96.167 C 15.670 95.250,14.885 94.500,14.840 94.500 C 14.794 94.500,15.503 95.250,16.417 96.167 M18.667 98.219 C 18.667 98.248,18.910 98.491,19.208 98.760 L 19.750 99.250 19.260 98.708 C 18.804 98.203,18.667 98.090,18.667 98.219 M81.625 106.511 C 81.281 106.693,81.000 106.879,81.000 106.924 C 81.000 106.970,81.300 106.854,81.667 106.667 C 82.033 106.480,82.333 106.291,82.333 106.247 C 82.333 106.138,82.332 106.138,81.625 106.511 M49.208 112.282 C 49.369 112.323,49.631 112.323,49.792 112.282 C 49.952 112.240,49.821 112.205,49.500 112.205 C 49.179 112.205,49.048 112.240,49.208 112.282 M53.213 112.623 C 53.652 112.657,54.327 112.657,54.713 112.622 C 55.100 112.587,54.742 112.559,53.917 112.559 C 53.092 112.560,52.775 112.588,53.213 112.623 M57.880 112.623 C 58.318 112.657,58.993 112.657,59.380 112.622 C 59.767 112.587,59.408 112.559,58.583 112.559 C 57.758 112.560,57.442 112.588,57.880 112.623 " stroke="none" fill="#9cd9f2" fill-rule="evenodd"></path></g></svg>